<svg xmlns="http://www.w3.org/2000/svg" width="32" height="32" viewBox="0 0 24 24"><path fill="#3b82f6" d="M12 2C6.48 2 2 6.48 2 12s4.48 10 10 10s10-4.48 10-10S17.52 2 12 2zm3.08 15.25c-.23.23-.53.35-.85.35s-.62-.12-.85-.35l-2.65-2.65c-.09-.09-.15-.2-.18-.33c-.03-.13-.02-.26.04-.39l1.19-2.58c.19-.41.65-.63 1.08-.45l.91.38c.17.07.35.1.53.1s.36-.03.53-.1l.91-.38c.43-.18.89 0 1.08.45l1.19 2.58c.06.13.07.26.04.39c-.03.13-.09.24-.18.33l-2.65 2.65zM8.5 12.5a2 2 0 1 1 0-4a2 2 0 0 1 0 4zm7 0a2 2 0 1 1 0-4a2 2 0 0 1 0 4z"/></svg>